<?xml version="1.0" encoding="utf-8"?>
<!-- Generator: Adobe Illustrator 24.1.3, SVG Export Plug-In . SVG Version: 6.00 Build 0)  -->
<svg version="1.1" id="Layer_1" xmlns="http://www.w3.org/2000/svg" xmlns:xlink="http://www.w3.org/1999/xlink" x="0px" y="0px"
	 viewBox="0 0 1451 345" style="enable-background:new 0 0 1451 345;" xml:space="preserve">
<style type="text/css">
	.st0{fill:#1D1D1B;}
	.st1{font-family:'FashionFetish';}
	.st2{font-size:99.7429px;}
	.st3{fill:none;stroke:#1D1D1B;stroke-width:9;stroke-linecap:round;stroke-linejoin:round;stroke-miterlimit:10;}
</style>
<g>
	<g>
		<g>
			<text transform="matrix(1 0 0 1 392.2611 204.5828)" class="st0 st1 st2">Eliza Marc Design</text>
		</g>
	</g>
	<g>
		<g>
			<g>
				<path class="st3" d="M14.3,147C21.1,84.4,63.8,40.1,122.2,21.8"/>
				<path class="st3" d="M252.1,38.5"/>
				<path class="st3" d="M260.6,44.3"/>
				<line class="st3" x1="74.5" y1="157.5" x2="23.4" y2="157.5"/>
				<line class="st3" x1="250" y1="96.7" x2="250" y2="53.5"/>
				<line class="st3" x1="222.5" y1="96.7" x2="222.5" y2="29.2"/>
				<path class="st3" d="M262.6,45.8"/>
				<path class="st3" d="M255.8,51.6"/>
				<path class="st3" d="M74.5,185c7.6,0,13.7-6.2,13.7-13.7c0-7.6-6.2-13.7-13.7-13.7"/>
				<path class="st3" d="M222.5,97c0,7.6,6.2,13.7,13.7,13.7c7.6,0,13.7-6.2,13.7-13.7"/>
				<path class="st3" d="M265.5,47.4c35.1,30.5,60.1,74.4,60,123.8c-0.1,68.2-43.6,126.2-104.5,147.7"/>
				<line class="st3" x1="22.8" y1="185" x2="74.5" y2="185"/>
				<path class="st3" d="M20.8,177.9"/>
				<path class="st3" d="M13.5,189.1"/>
				<path class="st3" d="M197.8,16.7c-8.9-1.5-18.2-2-28.8-2v313.1c-78.7,0-143.7-57.2-154.8-132.8"/>
				<path class="st3" d="M213.2,19.9c-3-0.7-12.4-2.7-15.4-3.2"/>
				<path class="st3" d="M226.6,25.6"/>
				<path class="st3" d="M22.7,162.5"/>
				<path class="st3" d="M222.5,44.3"/>
				<path class="st3" d="M259.3,45.1c2.4,0,4.6,0.9,6.2,2.4"/>
				<path class="st3" d="M250,54.4c0-5.1,4.2-9.3,9.3-9.3"/>
				<path class="st3" d="M222.5,29.2"/>
				<path class="st3" d="M213.2,19.9"/>
				<path class="st3" d="M213,19.9c5.3,0.7,9.5,5.3,9.5,10.8"/>
				<path class="st3" d="M23.5,157.5c-5.1,0-9.3-4.2-9.3-9.3"/>
				<path class="st3" d="M14.2,148.2c0-0.4,0-0.8,0.1-1.2"/>
			</g>
		</g>
		<path class="st3" d="M14.2,195c0-6.6,4.4-10,9.6-10"/>
	</g>
</g>
</svg>
